/* XPM */
static const char *xpmSdgbc64[] = {
/* columns rows colors chars-per-pixel */
"64 64 223 2 ",
"   c #000000",
".  c #0E0E0E",
"X  c #1B1B1B",
"o  c #232323",
"O  c #3F3F3F",
"+  c #414141",
"@  c #5A5A5A",
"#  c #656668",
"$  c #5039F0",
"%  c #7726F0",
"&  c #6437F2",
"*  c #6E2BF1",
"=  c #1D5FF3",
"-  c #3858F4",
";  c #2E59F4",
":  c #0267F1",
">  c #0075F3",
",  c #1061F2",
"<  c #2467F5",
"1  c #5958F8",
"2  c #4B51F5",
"3  c #704EF8",
"4  c #4660F8",
"5  c #797AFF",
"6  c #927C92",
"7  c #950BEC",
"8  c #A801EB",
"9  c #B800EC",
"0  c #B311F2",
"q  c #9A26F5",
"w  c #8D30F5",
"e  c #AB27F6",
"r  c #BB2AF9",
"t  c #AC36FA",
"y  c #C800EE",
"u  c #C704F1",
"i  c #D300F1",
"p  c #DC02F2",
"a  c #C81AF6",
"s  c #D70DF4",
"d  c #EC01F4",
"f  c #E402F3",
"g  c #F400F4",
"h  c #F80CF9",
"j  c #E818FA",
"k  c #F713FA",
"l  c #C929FA",
"z  c #D626FB",
"x  c #D137FE",
"c  c #FB27FB",
"v  c #FD38FD",
"b  c #E531FE",
"n  c #874AF9",
"m  c #9646FA",
"M  c #8C54FC",
"N  c #A84AFD",
"B  c #B945FE",
"V  c #986CFF",
"C  c #8776FF",
"Z  c #9678FF",
"A  c #886CFF",
"S  c #A76AFF",
"D  c #B867FF",
"F  c #B67AFF",
"G  c #A871FF",
"H  c #C846FF",
"J  c #D943FF",
"K  c #D257FF",
"L  c #E942FF",
"P  c #FA48FA",
"I  c #F641FF",
"U  c #E65BFF",
"Y  c #FF53FF",
"T  c #FE5CFF",
"R  c #F45AFF",
"E  c #C26BFF",
"W  c #CD69FF",
"Q  c #D866FF",
"!  c #C87CFB",
"~  c #D679FC",
"^  c #ED62FF",
"/  c #E266FF",
"(  c #FC64FD",
")  c #FE6CFF",
"_  c #F265FF",
"`  c #FE74FF",
"'  c #FF7DFF",
"]  c #F375FF",
"[  c #E776FF",
"{  c #7E8D92",
"}  c #018CF9",
"|  c #0489F8",
" . c #0094FA",
".. c #009BFC",
"X. c #1F9EFB",
"o. c #00A3FE",
"O. c #01ABFF",
"+. c #02B3FF",
"@. c #05BCFF",
"#. c #2BBCFF",
"$. c #39B7FF",
"%. c #2F9AFC",
"&. c #5F9EEF",
"*. c #5490F9",
"=. c #7893FF",
"-. c #6C93FA",
";. c #47B9FF",
":. c #58B7FF",
">. c #65A2F4",
",. c #6BB4FB",
"<. c #7AB8FF",
"1. c #77AFFF",
"2. c #07C3FF",
"3. c #08CBFF",
"4. c #17C8FF",
"5. c #0AD2FF",
"6. c #0CDCFF",
"7. c #1BD9FF",
"8. c #23C4FF",
"9. c #35C7FF",
"0. c #2BD9FF",
"q. c #3CD9FF",
"w. c #0FE5FF",
"e. c #0FE8FF",
"r. c #11EDFF",
"t. c #11F2FF",
"y. c #15FDFF",
"u. c #1BFFFF",
"i. c #1AF5FF",
"p. c #2BFFFF",
"a. c #22FAFF",
"s. c #35FBFF",
"d. c #2BE7FF",
"f. c #5ACAFF",
"g. c #4AD7FF",
"h. c #54D9FF",
"j. c #48CDFF",
"k. c #67CAFF",
"l. c #75C9FF",
"z. c #75D9FF",
"x. c #69D8FE",
"c. c #48E4FF",
"v. c #55E6FF",
"b. c #5DFEFF",
"n. c #57F1FF",
"m. c #60FFFF",
"M. c #6EF5FF",
"N. c #7AFCFD",
"B. c #65E0FF",
"V. c #928D93",
"C. c #879393",
"Z. c #919393",
"A. c #A39FA4",
"S. c #9DA4A4",
"D. c #A3A2A4",
"F. c #B6BFC4",
"G. c #968AFE",
"H. c #8996FF",
"J. c #9594FF",
"K. c #A785FF",
"L. c #B98BFF",
"P. c #B697F9",
"I. c #88ADFF",
"U. c #99ADFB",
"Y. c #88B4FF",
"T. c #96B8FC",
"R. c #A6A7F8",
"E. c #B7A9FF",
"W. c #A7B5FF",
"Q. c #B8BDFF",
"!. c #BCB3E0",
"~. c #D584F6",
"^. c #C69AFF",
"/. c #CD8AFA",
"(. c #EE86EE",
"). c #E483FB",
"_. c #F481F4",
"`. c #F589F6",
"'. c #FF83FF",
"]. c #FF8BFF",
"[. c #F783FF",
"{. c #E89BFF",
"}. c #FF93FF",
"|. c #FF9BFF",
" X c #F499FA",
".X c #C9A8FF",
"XX c #D9A5FF",
"oX c #C9B9FF",
"OX c #D7BBFF",
"+X c #D0B5E1",
"@X c #FFA4FF",
"#X c #FFACFF",
"$X c #F5A4FA",
"%X c #E7B6FF",
"&X c #FEB4FF",
"*X c #FABBFF",
"=X c #E8A6FF",
"-X c #B0C5C5",
";X c #85C9FB",
":X c #99C4FF",
">X c #83D3F7",
",X c #8AD3FA",
"<X c #93D5FF",
"1X c #A5C7FF",
"2X c #B4C5FF",
"3X c #B9DEF7",
"4X c #A9D1E1",
"5X c #96E3F7",
"6X c #8FF4F9",
"7X c #91F7F7",
"8X c #95FAFA",
"9X c #8AEAF7",
"0X c #ABE1E1",
"qX c #A7E0E0",
"wX c #A8E1F7",
"eX c #C8CAFF",
"rX c #D7D3F7",
"tX c #CCD1F0",
"yX c #E8CCF7",
"uX c #FEC4FF",
"iX c #FAC9FE",
"pX c #E2D0F7",
"aX c None",
/* pixels */
"aXaXaXaXaXaXaXaXaXaXaXaXaXaXaXaXaXaXaXaXaXaXaX                                    aXaXaXaXaXaXaXaXaXaXaXaXaXaXaXaXaXaXaXaXaXaXaX",
"aXaXaXaXaXaXaXaXaXaXaXaXaXaXaXaXaXaXaXaXaXaX  . + @ @ @ @ @ @ @ @ @ @ @ @ @ @ +     aXaXaXaXaXaXaXaXaXaXaXaXaXaXaXaXaXaXaXaXaXaX",
"aXaXaXaXaXaXaXaXaXaXaXaXaXaXaXaXaXaXaXaXaX    6 ( ( |.#X#X*XuXiXiX'.' |.uXuXuXiXZ.    aXaXaXaXaXaXaXaXaXaXaXaXaXaXaXaXaXaXaXaXaX",
"aXaXaXaXaXaXaXaXaXaXaXaXaXaXaXaXaXaXaXaXaX  X (.g c ) '.].|.@X&X#XY ( @X&X#X X{.yXo   aXaXaXaXaXaXaXaXaXaXaXaXaXaXaXaXaXaXaXaXaX",
"aXaXaXaXaXaXaXaXaXaXaXaXaXaXaXaXaXaXaXaXaX  o _.g c ` '.].|.@X&X#X[.&X*X#X$X=X{.yXo   aXaXaXaXaXaXaXaXaXaXaXaXaXaXaXaXaXaXaXaXaX",
"aXaXaXaXaXaXaXaXaXaXaXaXaXaXaXaXaXaXaXaXaX  o _.g c ` ].}.@X#X&X|.&XuX*X%X=XXXXXyXo   aXaXaXaXaXaXaXaXaXaXaXaXaXaXaXaXaXaXaXaXaX",
"aXaXaXaXaXaXaXaXaXaXaXaXaXaXaXaXaXaXaXaXaX  o _.g c ' ].}.@X#X].T *X*X%X%XXX^.^.pXo   aXaXaXaXaXaXaXaXaXaXaXaXaXaXaXaXaXaXaXaXaX",
"aXaXaXaXaXaXaXaXaXaXaXaXaXaXaXaXaXaXaXaXaX  o _.g c ' ].}.@X].Y Y *XyXOXOXXX.X^.rXo   aXaXaXaXaXaXaXaXaXaXaXaXaXaXaXaXaXaXaXaXaX",
"aXaXaXaXaXaXaXaXaXaXaXaXaXaXaXaXaXaXaXaXaX  o _.g c '.].}.' T P T %XpXOXoX.XE.P.rXo   aXaXaXaXaXaXaXaXaXaXaXaXaXaXaXaXaXaXaXaXaX",
"aXaXaXaXaXaXaXaXaXaXaXaXaXaXaXaXaXaXaXaXaX  o (.g v '.}.' ( T Y T OXeXoXQ.E.E.R.rXo   aXaXaXaXaXaXaXaXaXaXaXaXaXaXaXaXaXaXaXaXaX",
"aXaXaXaXaXaXaXaXaXaXaXaXaXaXaXaXaXaXaXaXaX  o ] g Y ].' ) ( T Y R OXeXQ.Q.W.W.U.tXo   aXaXaXaXaXaXaXaXaXaXaXaXaXaXaXaXaXaXaXaXaX",
"aXaXaXaXaXaXaXaXaXaXaXaXaXaXaXaXaXaXaXaXaX  o _.g Y ' ` ) ( T Y _ oX2XQ.W.W.T.Y.3Xo   aXaXaXaXaXaXaXaXaXaXaXaXaXaXaXaXaXaXaXaXaX",
"aXaXaXaXaXaXaXaXaXaXaXaXaXaXaXaXaXaXaXaXaX  o _.g Y ' ` ) ( ( Y / Q.1X1X:XU.I.Y.3Xo   aXaXaXaXaXaXaXaXaXaXaXaXaXaXaXaXaXaXaXaXaX",
"aXaXaXaXaXaXaXaXaXaXaXaXaXaXaXaXaXaXaXaXaX  o _.h Y '.` ` _ ^ U Q 2X1X:X:XI.<.,.3Xo   aXaXaXaXaXaXaXaXaXaXaXaXaXaXaXaXaXaXaXaXaX",
"aXaXaXaXaXaXaXaXaXaXaXaXaXaXaXaXaXaXaXaXaX  o _.g T ' ` ) ^ / K W 1X<X,X;XI.1.k.3Xo   aXaXaXaXaXaXaXaXaXaXaXaXaXaXaXaXaXaXaXaXaX",
"aXaXaXaXaXaXaXaXaXaXaXaXaXaXaXaXaXaXaXaXaX  o _.h ( [.] [ Q Q K E :X,Xz.z.1.,.f.3Xo   aXaXaXaXaXaXaXaXaXaXaXaXaXaXaXaXaXaXaXaXaX",
"aXaXaXaXaXaXaXaXaXaXaXaXaXaXaXaXaXaXaXaXaX  o _.h T ).[ [ Q K K G :Xl.z.k.,.:.f.wXo   aXaXaXaXaXaXaXaXaXaXaXaXaXaXaXaXaXaXaXaXaX",
"aXaXaXaXaXaXaXaXaXaXaXaXaXaXaXaXaXaXaXaXaX  o `.h _ ).~ ! W W D K.;Xz.B.k.:.:.;.wXo   aXaXaXaXaXaXaXaXaXaXaXaXaXaXaXaXaXaXaXaXaX",
"aXaXaXaXaXaXaXaXaXaXaXaXaXaXaXaXaXaXaXaXaX  o `.h ^ ~.! ! E F G G.l.x.v.f.:.;.9.5Xo   aXaXaXaXaXaXaXaXaXaXaXaXaXaXaXaXaXaXaXaXaX",
"aXaXaXaXaXaXaXaXaXaXaXaXaXaXaXaXaXaXaXaXaX  o `.k U /.F F D S Z H.k.h.c.j.;.$.9.5Xo   aXaXaXaXaXaXaXaXaXaXaXaXaXaXaXaXaXaXaXaXaX",
"aXaXaXaXaXaXaXaXaXaXaXaXaXaXaXaXaXaXaXaXaX  o `.k Q /.L.F S V Z =.f.h.c.9.$.9.8.5Xo   aXaXaXaXaXaXaXaXaXaXaXaXaXaXaXaXaXaXaXaXaX",
"aXaX                                        o `.j E L.K.G.S V C =.f.g.d.9.$.#.3.9Xo                                         aXaX",
"aX    X o o o o o o o o o o o o o o o o o o O `.j D K.J.J.A A 5 -.j.q.d.0.#.4.6.6XO o o o o o o o o o o o o o o o o o o X     aX",
"  . 6 (._.(.] _._._._._._._.] (._.`.$X$X$X X X^ z D K.H.H.A A =.>.j.d.i.7.4.w.w.n.6X6X7X7X7X7X7X8X7X7X7X7X7X7X7X7X7X7X7X7XC.    ",
"  + ( g g g g g g g g g g g g g g h I I b b b z l G G.H.2XtXA.Z.Z.D.0XM.7.r.r.e.e.e.y.u.u.u.u.u.u.u.u.u.u.u.u.u.u.u.u.u.u.N.+   ",
"  @ P g g g g g g g g g g g g g g k I L b z z l r V J.tX# .         . # 0Xs.t.t.e.r.u.u.u.u.u.u.u.u.u.u.u.u.u.u.u.u.u.u.u.m.@   ",
"  @ P g g g g g g g g g g g g g g h L J x x l r t K.F.o     aXaXaXaX    o -Xs.r.t.y.u.u.u.u.u.u.u.u.u.u.u.u.u.u.u.u.u.u.u.m.@   ",
"  @ P g g g g g g g g g g g g g g k J J x l a e t +Xo   aXaXaXaXaXaXaXaX  o qXi.y.y.y.u.u.u.u.u.u.u.u.u.u.u.u.u.u.u.u.u.u.m.@   ",
"  @ P g g g g g g g g g g g g g g j K H B r 0 e ~.#   aXaXaXaXaXaXaXaXaXaX  @ N.y.u.u.u.u.u.u.u.u.a.u.u.u.u.a.u.u.u.u.u.u.m.@   ",
"  @ P g g g g g g g g g g g g g g j H B N e e q +X.   aXaXaXaXaXaXaXaXaXaX  . qXy.y.u.u.u.u.u.u.u.u.u.u.u.u.u.u.u.u.u.u.u.m.@   ",
"  @ P g g g g g g g g g g g g g g s H N N t q t A.  aXaXaXaXaXaXaXaXaXaXaXaX  S.p.u.u.u.u.u.u.u.u.u.u.u.u.u.u.u.u.u.u.u.u.m.@   ",
"  @ P g g g g g g g g g g g g g d a t N M t q n V.  aXaXaXaXaXaXaXaXaXaXaXaX  C.p.u.u.u.u.u.u.u.u.u.u.u.u.u.u.u.u.u.u.u.u.m.@   ",
"  @ P g g g g g g g g g g g g d p a N m M w w w V.  aXaXaXaXaXaXaXaXaXaXaXaX  Z.p.u.a.u.u.u.u.u.u.u.u.u.u.u.u.u.u.u.u.u.u.m.@   ",
"  @ P g g g g g g g g g g d d f i 0 m M M % % 3 A.  aXaXaXaXaXaXaXaXaXaXaXaX  S.p.u.u.u.u.u.u.u.u.u.u.u.u.u.u.u.u.u.u.u.u.m.@   ",
"  @ P g g g g g g g g h f f f p y e m M 3 3 * & !..   aXaXaXaXaXaXaXaXaXaX  . 0Xu.u.u.u.u.u.u.u.u.u.u.u.u.a.u.u.u.u.u.u.u.m.@   ",
"  @ P g g g g g g g d f i i i i 9 7 n 3 3 & * $ G.#   aXaXaXaXaXaXaXaXaXaX  @ N.u.u.u.u.u.u.u.u.u.u.u.u.u.u.u.u.u.u.u.u.u.m.@   ",
"  @ P g g g g g g g f p y y y 9 9 7 3 3 1 & $ $ - 4Xo   aXaXaXaXaXaXaXaX  o 0Xp.u.u.u.u.u.u.u.u.a.u.u.u.u.u.u.u.u.u.u.u.u.m.@   ",
"  @ P g g g g g g g p i a 9 y 9 8 w 3 1 2 $ $ - = %.F.o     aXaXaXaX    o -Xs.u.u.u.u.u.u.u.u.u.u.u.u.u.u.u.u.u.u.u.u.u.u.m.@   ",
"  @ P g g g g g g d i y 9 8 8 8 7 % 1 2 4 2 ; ; = } X.4X@ .         . @ 0Xs.u.u.u.u.u.u.u.u.u.u.u.u.u.u.u.u.u.u.u.u.u.u.u.m.@   ",
"  O ( g g g g g g d y 9 8 8 8 8 7 % 1 2 4 ; < = , | | | k.4XS.Z.C.S.qXN.p.u.u.u.u.u.u.u.u.u.u.u.u.u.u.u.u.u.u.u.u.u.u.u.u.N.+   ",
"    V._.] (._._._._.~.~.~.~.~ ! F P.E.R.R.T.T.*.: |  .| ..2.4.4.7.a.i.y.u.u.u.u.b.8X7X7X7X7X7X7X7X7X7X7X7X7X7X7X7X7X7X7X7XC..   ",
"aX    X o o o o o o o o o o o o X X o o o X O >.: } ..| o.2.3.3.w.t.y.y.u.u.u.u.8XO o o o o o o o o o o o o o o o o o o X     aX",
"aXaX                                        o &.:  ...} o.2.3.6.w.t.y.u.u.u.u.u.7Xo                                         aXaX",
"aXaXaXaXaXaXaXaXaXaXaXaXaXaXaXaXaXaXaXaXaX  o &.: } ..} O.2.3.6.w.y.y.y.u.u.u.u.7Xo   aXaXaXaXaXaXaXaXaXaXaXaXaXaXaXaXaXaXaXaXaX",
"aXaXaXaXaXaXaXaXaXaXaXaXaXaXaXaXaXaXaXaXaX  o >.>  .o...+.2.3.6.e.y.y.u.u.u.u.u.7Xo   aXaXaXaXaXaXaXaXaXaXaXaXaXaXaXaXaXaXaXaXaX",
"aXaXaXaXaXaXaXaXaXaXaXaXaXaXaXaXaXaXaXaXaX  o >.> ..o.O.+.3.5.w.e.y.y.u.u.u.u.u.7Xo   aXaXaXaXaXaXaXaXaXaXaXaXaXaXaXaXaXaXaXaXaX",
"aXaXaXaXaXaXaXaXaXaXaXaXaXaXaXaXaXaXaXaXaX  o &.> ..o.+.@.3.6.w.r.y.y.u.u.u.u.u.7Xo   aXaXaXaXaXaXaXaXaXaXaXaXaXaXaXaXaXaXaXaXaX",
"aXaXaXaXaXaXaXaXaXaXaXaXaXaXaXaXaXaXaXaXaX  o >.> ..o.+.@.5.6.e.t.y.u.u.u.u.u.u.7Xo   aXaXaXaXaXaXaXaXaXaXaXaXaXaXaXaXaXaXaXaXaX",
"aXaXaXaXaXaXaXaXaXaXaXaXaXaXaXaXaXaXaXaXaX  o ,.| o.o.@.2.5.6.e.y.y.u.u.u.u.u.u.7Xo   aXaXaXaXaXaXaXaXaXaXaXaXaXaXaXaXaXaXaXaXaX",
"aXaXaXaXaXaXaXaXaXaXaXaXaXaXaXaXaXaXaXaXaX  X ;X} o.O.@.2.5.w.t.y.u.u.u.u.u.u.u.7Xo   aXaXaXaXaXaXaXaXaXaXaXaXaXaXaXaXaXaXaXaXaX",
"aXaXaXaXaXaXaXaXaXaXaXaXaXaXaXaXaXaXaXaXaX  o >X} o.O.2.3.5.w.t.y.y.u.u.u.u.u.u.7Xo   aXaXaXaXaXaXaXaXaXaXaXaXaXaXaXaXaXaXaXaXaX",
"aXaXaXaXaXaXaXaXaXaXaXaXaXaXaXaXaXaXaXaXaX  o ;X .O.O.2.5.6.e.t.y.y.u.u.u.u.u.u.7Xo   aXaXaXaXaXaXaXaXaXaXaXaXaXaXaXaXaXaXaXaXaX",
"aXaXaXaXaXaXaXaXaXaXaXaXaXaXaXaXaXaXaXaXaX  o >X..O.@.2.5.6.r.y.y.u.u.u.u.u.u.u.7Xo   aXaXaXaXaXaXaXaXaXaXaXaXaXaXaXaXaXaXaXaXaX",
"aXaXaXaXaXaXaXaXaXaXaXaXaXaXaXaXaXaXaXaXaX  o >Xo.O.@.3.5.w.r.t.y.u.u.u.u.u.u.u.7Xo   aXaXaXaXaXaXaXaXaXaXaXaXaXaXaXaXaXaXaXaXaX",
"aXaXaXaXaXaXaXaXaXaXaXaXaXaXaXaXaXaXaXaXaX  o >Xo.+.@.3.6.w.r.y.y.u.u.u.u.u.u.u.7Xo   aXaXaXaXaXaXaXaXaXaXaXaXaXaXaXaXaXaXaXaXaX",
"aXaXaXaXaXaXaXaXaXaXaXaXaXaXaXaXaXaXaXaXaX  o >XO.+.2.3.6.w.t.y.y.y.u.u.u.u.u.u.7Xo   aXaXaXaXaXaXaXaXaXaXaXaXaXaXaXaXaXaXaXaXaX",
"aXaXaXaXaXaXaXaXaXaXaXaXaXaXaXaXaXaXaXaXaX  o >XO.+.3.5.6.w.r.t.y.u.u.u.u.u.u.u.7Xo   aXaXaXaXaXaXaXaXaXaXaXaXaXaXaXaXaXaXaXaXaX",
"aXaXaXaXaXaXaXaXaXaXaXaXaXaXaXaXaXaXaXaXaX  o >XO.@.3.5.6.e.r.y.y.y.u.u.u.u.u.u.7Xo   aXaXaXaXaXaXaXaXaXaXaXaXaXaXaXaXaXaXaXaXaX",
"aXaXaXaXaXaXaXaXaXaXaXaXaXaXaXaXaXaXaXaXaX  o >X+.@.3.3.6.w.t.y.y.u.u.u.u.u.u.u.7Xo   aXaXaXaXaXaXaXaXaXaXaXaXaXaXaXaXaXaXaXaXaX",
"aXaXaXaXaXaXaXaXaXaXaXaXaXaXaXaXaXaXaXaXaX  o >X+.@.3.5.6.w.r.y.y.u.u.u.u.u.u.u.7Xo   aXaXaXaXaXaXaXaXaXaXaXaXaXaXaXaXaXaXaXaXaX",
"aXaXaXaXaXaXaXaXaXaXaXaXaXaXaXaXaXaXaXaXaX  X >X+.@.3.5.6.e.t.y.y.u.u.u.u.u.u.u.7XX   aXaXaXaXaXaXaXaXaXaXaXaXaXaXaXaXaXaXaXaXaX",
"aXaXaXaXaXaXaXaXaXaXaXaXaXaXaXaXaXaXaXaXaX    C.x.g.h.v.v.n.n.b.b.b.b.m.b.m.m.N.C.    aXaXaXaXaXaXaXaXaXaXaXaXaXaXaXaXaXaXaXaXaX",
"aXaXaXaXaXaXaXaXaXaXaXaXaXaXaXaXaXaXaXaXaXaX    + @ @ @ @ @ @ @ @ @ @ @ @ @ @ +     aXaXaXaXaXaXaXaXaXaXaXaXaXaXaXaXaXaXaXaXaXaX",
"aXaXaXaXaXaXaXaXaXaXaXaXaXaXaXaXaXaXaXaXaXaXaX                                    aXaXaXaXaXaXaXaXaXaXaXaXaXaXaXaXaXaXaXaXaXaXaX"
};
