/* XPM */
static const char *xpmSdgbc16[] = {
/* columns rows colors chars-per-pixel */
"16 16 96 2 ",
"   c #714D71",
".  c #516871",
"X  c #567171",
"o  c #716871",
"O  c #446997",
"+  c #74718A",
"@  c #7B7E8D",
"#  c #756799",
"$  c #5C77AA",
"%  c #7730F2",
"&  c #763CF5",
"*  c #4250F4",
"=  c #855799",
"-  c #935799",
";  c #995799",
":  c #995999",
">  c #9C5B9C",
",  c #806F8A",
"<  c #9C629C",
"1  c #AA68AD",
"2  c #B602ED",
"3  c #A72BF6",
"4  c #A534F8",
"5  c #C033C0",
"6  c #C132C1",
"7  c #E200F2",
"8  c #E500F2",
"9  c #F301F5",
"0  c #F400F4",
"q  c #D228FA",
"w  c #D22BFB",
"e  c #EE25FB",
"r  c #9F6FDE",
"t  c #9178FF",
"y  c #BE66FE",
"u  c #BF6DFF",
"i  c #C35DC3",
"p  c #C67AC6",
"a  c #FB4AFB",
"s  c #E65BFE",
"d  c #FC52FC",
"f  c #FB54FD",
"g  c #ED64FF",
"h  c #FF64FF",
"j  c #548099",
"k  c #59859C",
"l  c #59879C",
"z  c #68828C",
"x  c #6C8A8D",
"c  c #6B8C8C",
"v  c #778E9C",
"b  c #69909C",
"n  c #609C9C",
"m  c #65A9AF",
"M  c #68AFAF",
"N  c #3681D9",
"B  c #38A5C6",
"V  c #3DBBC6",
"C  c #0086F8",
"Z  c #0097FB",
"A  c #02A7FD",
"S  c #04B6FF",
"D  c #50BFFF",
"F  c #7EBAFF",
"G  c #38D4DF",
"H  c #3EDFDF",
"J  c #06C1FF",
"K  c #08C0FF",
"L  c #09CEFF",
"P  c #0CDCFF",
"I  c #23CBFF",
"U  c #0FE8FF",
"Y  c #10EAFF",
"T  c #15F4FF",
"R  c #16F8FF",
"E  c #15FAFF",
"W  c #18FEFF",
"Q  c #19FFFF",
"!  c #1BFFFF",
"~  c #1DFFFF",
"^  c #43C6C6",
"/  c #44C6C6",
"(  c #45C6C6",
")  c #4CCAFF",
"_  c #79C0FF",
"`  c #85899C",
"'  c #90859C",
"]  c #ADAFFF",
"[  c #AAB2FF",
"{  c #C68FC6",
"}  c #C393C6",
"|  c #FF9AFF",
" . c #D8A7FF",
".. c #DCA6FF",
"X. c #F7A8FF",
"o. c None",
/* pixels */
"o.o.o.o.o.  i { p } o o.o.o.o.o.",
"o.o.o.o.o.; a | X...' o.o.o.o.o.",
"o.o.o.o.o.; d h  .] ` o.o.o.o.o.",
"o.o.o.o.o.: f g [ F v o.o.o.o.o.",
"o.o.o.o.o.> s u _ D b o.o.o.o.o.",
"  ; ; ; < 1 y t ) I m n n n n X ",
"5 0 0 0 e w r @ x G R ! ! ! ! ( ",
"5 0 0 0 q 4 , o.o.c ! ! ! ! ! ( ",
"5 0 9 8 3 & + o.o.c ~ ! ! ! ! ( ",
"5 0 7 2 % * N z c H ! ! ! ! ! ( ",
"  ; - = # $ C K T ! M n n n n X ",
"o.o.o.o.o.O Z L R ! n o.o.o.o.o.",
"o.o.o.o.o.j A P ! ! n o.o.o.o.o.",
"o.o.o.o.o.l S U W ! n o.o.o.o.o.",
"o.o.o.o.o.l J U ! ! n o.o.o.o.o.",
"o.o.o.o.o.. B V ^ ^ X o.o.o.o.o."
};
