/* XPM */
static const char *xpmSdgbc32[] = {
/* columns rows colors chars-per-pixel */
"32 32 166 2 ",
"   c #010101",
".  c #494749",
"X  c #474949",
"o  c #505050",
"O  c #565E5F",
"+  c #5E5E61",
"@  c #586161",
"#  c #767478",
"$  c #727878",
"%  c #7C5E9A",
"&  c #5D7C85",
"*  c #466B99",
"=  c #537D9C",
"-  c #6C719D",
";  c #7B76A4",
":  c #483EF1",
">  c #6330F0",
",  c #275FF4",
"<  c #3F57F5",
"1  c #0579F5",
"2  c #5552F6",
"3  c #594AF5",
"4  c #6C4DF8",
"5  c #7047F7",
"6  c #855A85",
"7  c #8C5A9C",
"8  c #87579A",
"9  c #9D599D",
"0  c #9D6A9E",
"q  c #847885",
"w  c #9173A4",
"e  c #8211EC",
"r  c #9910ED",
"t  c #AB03EC",
"y  c #B20DEF",
"u  c #8035F4",
"i  c #9732F5",
"p  c #B030F9",
"a  c #C000EC",
"s  c #C603F1",
"d  c #CA0EF3",
"f  c #DC01F2",
"g  c #EC02F4",
"h  c #E90BF6",
"j  c #F400F4",
"k  c #F508F6",
"l  c #F816F8",
"z  c #C021F7",
"x  c #CF34FD",
"c  c #D526FB",
"v  c #F724F7",
"b  c #F72CF7",
"n  c #FA2AFA",
"m  c #E432FE",
"M  c #F737FB",
"N  c #8548FA",
"B  c #9D44FC",
"V  c #B248FD",
"C  c #8279FF",
"Z  c #9270FF",
"A  c #A774FF",
"S  c #BC73FF",
"D  c #B468F5",
"F  c #C773CE",
"G  c #C845FE",
"H  c #DD43FF",
"J  c #DB5BFF",
"K  c #E040FD",
"L  c #F341FF",
"P  c #FB58FF",
"I  c #C461FF",
"U  c #D370FF",
"Y  c #EA6DFF",
"T  c #FE6AFF",
"R  c #E37EFF",
"E  c #FE7CFF",
"W  c #5A869D",
"Q  c #5A899E",
"!  c #618585",
"~  c #7B8F9E",
"^  c #64949E",
"/  c #629E9E",
"(  c #6E909E",
")  c #74909E",
"_  c #6691A3",
"`  c #6DA3A4",
"'  c #008DF9",
"]  c #0085F7",
"[  c #0096FB",
"{  c #009CFC",
"}  c #00A4FE",
"|  c #01ACFF",
" . c #03B3FF",
".. c #05BBFF",
"X. c #32A0F3",
"o. c #3BBFFF",
"O. c #658CCB",
"+. c #5185F2",
"@. c #57B8FF",
"#. c #7FADFF",
"$. c #67B9FF",
"%. c #7CBDFF",
"&. c #07C4FF",
"*. c #09CCFF",
"=. c #10C8FF",
"-. c #0AD3FF",
";. c #0CDBFF",
":. c #11DCFF",
">. c #22C7FF",
",. c #35C6FF",
"<. c #2DD7FF",
"1. c #0EE2FF",
"2. c #10EDFF",
"3. c #18E7FF",
"4. c #12F4FF",
"5. c #16FEFF",
"6. c #1BFFFF",
"7. c #2DE3FF",
"8. c #31E7FF",
"9. c #22FFFF",
"0. c #3DFFFF",
"q. c #36F8FF",
"w. c #6EC7CF",
"e. c #73CFCF",
"r. c #4EC4FF",
"t. c #43DFFF",
"y. c #5ADDFF",
"u. c #72D7FF",
"i. c #42ECF8",
"p. c #49F7F7",
"a. c #44FEFE",
"s. c #868C9E",
"d. c #93889F",
"f. c #898CA5",
"g. c #8C80FF",
"h. c #9B8FFF",
"j. c #B487FF",
"k. c #B397FF",
"l. c #99A0FF",
"z. c #80B8FF",
"x. c #96B5FF",
"c. c #A0A3F8",
"v. c #B3A2FF",
"b. c #AAB7FF",
"n. c #CC80FF",
"m. c #CA9AFF",
"M. c #E28BFF",
"N. c #FF83FF",
"B. c #FE8AFF",
"V. c #F289FF",
"C. c #E09DFF",
"Z. c #FF95FF",
"A. c #FF9DFF",
"S. c #C1B3FF",
"D. c #D9B0FF",
"F. c #EFAEFF",
"G. c #FFA2FF",
"H. c #FFAFFF",
"J. c #E8BFFF",
"K. c #FEB9FF",
"L. c #F6B0FE",
"P. c #89D5FF",
"I. c #A2C8FF",
"U. c #BAC5FF",
"Y. c #D1C3FF",
"T. c None",
/* pixels */
"T.T.T.T.T.T.T.T.T.T.T.  . o o o o o o .   T.T.T.T.T.T.T.T.T.T.T.",
"T.T.T.T.T.T.T.T.T.T.  6 M Z.G.K.Z.B.K.L.q   T.T.T.T.T.T.T.T.T.T.",
"T.T.T.T.T.T.T.T.T.T.  9 l E Z.H.G.K.F.C.d.  T.T.T.T.T.T.T.T.T.T.",
"T.T.T.T.T.T.T.T.T.T.  9 l N.A.N.B.J.D.m.d.  T.T.T.T.T.T.T.T.T.T.",
"T.T.T.T.T.T.T.T.T.T.  9 l N.E P V.Y.S.v.s.  T.T.T.T.T.T.T.T.T.T.",
"T.T.T.T.T.T.T.T.T.T.  9 n E T P M.U.b.x.s.  T.T.T.T.T.T.T.T.T.T.",
"T.T.T.T.T.T.T.T.T.T.  9 n E T P m.I.x.%.~   T.T.T.T.T.T.T.T.T.T.",
"T.T.T.T.T.T.T.T.T.T.  9 b E Y J k.P.%.$.)   T.T.T.T.T.T.T.T.T.T.",
"T.T.T.T.T.T.T.T.T.T.  9 M M.U I l.u.$.@.(   T.T.T.T.T.T.T.T.T.T.",
"T.T.T.T.T.T.T.T.T.T.  9 M n.S A #.y.r.o.^   T.T.T.T.T.T.T.T.T.T.",
"T.                    0 K j.A Z $.t.,.,.^                     T.",
"  6 9 9 9 9 9 9 9 0 0 F G h.g.C @.7.=.:.w./ / / ` / / / / ` !   ",
". b j j j j j j k L m c V c.f.# $ ` i.2.2.6.6.6.6.6.6.6.6.6.a.X ",
"o n j j j j j j k H c p D +   T.T.  @ i.4.6.6.6.6.6.6.6.6.6.0.o ",
"o v j j j j j j h G p p w   T.T.T.T.  ` 5.6.6.6.6.6.6.6.6.6.0.o ",
"o n j j j j j j h V B i # T.T.T.T.T.T.$ 9.6.6.6.6.6.6.6.6.6.0.o ",
"o v j j j j j g d B N > # T.T.T.T.T.T.$ 9.6.6.6.6.6.6.6.6.6.0.o ",
"o v j j j j f f y N 5 > ;   T.T.T.T.  ` 6.6.6.6.6.6.6.6.6.6.0.o ",
"o v j j j f s y r 4 2 : +.O   T.T.  @ p.6.6.6.6.6.6.6.6.6.6.0.o ",
". b j j j s t t e 2 2 , 1 X._ $ $ ` p.6.6.6.6.6.6.6.6.6.6.6.a.. ",
"  6 9 9 9 7 7 8 7 - - O.1 [ | =.3.5.6.6.e./ / / / / / ` / / !   ",
"T.                    * 1 [  .-.2.5.6.6./                     T.",
"T.T.T.T.T.T.T.T.T.T.  * ] } ..;.4.5.6.6./   T.T.T.T.T.T.T.T.T.T.",
"T.T.T.T.T.T.T.T.T.T.  * ] | &.1.4.6.6.6./   T.T.T.T.T.T.T.T.T.T.",
"T.T.T.T.T.T.T.T.T.T.  = [  .*.1.5.6.6.6./   T.T.T.T.T.T.T.T.T.T.",
"T.T.T.T.T.T.T.T.T.T.  W {  .-.2.5.6.6.6./   T.T.T.T.T.T.T.T.T.T.",
"T.T.T.T.T.T.T.T.T.T.  W } &.;.4.5.6.6.6./   T.T.T.T.T.T.T.T.T.T.",
"T.T.T.T.T.T.T.T.T.T.  Q | *.;.4.5.6.6.6./   T.T.T.T.T.T.T.T.T.T.",
"T.T.T.T.T.T.T.T.T.T.  Q  .*.1.4.5.6.6.6./   T.T.T.T.T.T.T.T.T.T.",
"T.T.T.T.T.T.T.T.T.T.  Q  .*.1.4.5.6.6.6.`   T.T.T.T.T.T.T.T.T.T.",
"T.T.T.T.T.T.T.T.T.T.  ! ,.<.8.q.0.0.0.a.!   T.T.T.T.T.T.T.T.T.T.",
"T.T.T.T.T.T.T.T.T.T.T.  X o o o o o o .   T.T.T.T.T.T.T.T.T.T.T."
};
