/* XPM */
static const char *xpmSdgbc24[] = {
/* columns rows colors chars-per-pixel */
"24 24 181 2 ",
"   c black",
".  c #0C0C0C",
"X  c #35353A",
"o  c #3A353A",
"O  c #353A3A",
"+  c #3A3A3A",
"@  c #78747E",
"#  c #7A747E",
"$  c #707C7E",
"%  c #707E7E",
"&  c #727E7E",
"*  c #747E7E",
"=  c #78787E",
"-  c #456898",
";  c #456B98",
":  c #547D9B",
">  c #6B6E9B",
",  c #796299",
"<  c #6876B7",
"1  c #7D1FEF",
"2  c #5A33F0",
"3  c #7D32F3",
"4  c #3156F3",
"5  c #4C57F6",
"6  c #6B52F9",
"7  c #855799",
"8  c #8A5A99",
"9  c #965B96",
"0  c #945E94",
"q  c #9B579B",
"w  c #985B98",
"e  c #98599B",
"r  c #9B599B",
"t  c #9B5C9B",
"y  c #9B5D9B",
"u  c #9B5F9B",
"i  c #956A95",
"p  c #9B699C",
"a  c #977997",
"s  c #977D97",
"d  c #977F97",
"f  c #9868B9",
"g  c #B66CBB",
"h  c #9D1CF1",
"j  c #AC00EA",
"k  c #BD04F0",
"l  c #BC1BF4",
"z  c #9C2EF6",
"x  c #B823F7",
"c  c #CD00EF",
"v  c #D905F4",
"b  c #DB19F8",
"n  c #E900F3",
"m  c #EA00F2",
"M  c #F300F4",
"N  c #F201F5",
"B  c #F400F4",
"V  c #EB18F9",
"C  c #F615F8",
"Z  c #D426FB",
"A  c #F92BF9",
"S  c #F92DF9",
"D  c #E73CFF",
"F  c #FA36FA",
"G  c #FB3FFB",
"H  c #8A4DFB",
"J  c #A949FD",
"K  c #8774FF",
"L  c #AE63FC",
"P  c #A26EFF",
"I  c #B87DFF",
"U  c #C841FE",
"Y  c #C554FD",
"T  c #E14FFE",
"R  c #FB44FC",
"E  c #F14AFD",
"W  c #E15EFF",
"Q  c #FF59FF",
"!  c #FB5DFF",
"~  c #C265FF",
"^  c #D778FF",
"/  c #F574FF",
"(  c #FF71FF",
")  c #59849C",
"_  c #59859C",
"`  c #5D8899",
"'  c #59889C",
"]  c #658D95",
"[  c #6B8E9C",
"{  c #748E9C",
"}  c #7D8D9C",
"|  c #649297",
" . c #659697",
".. c #679797",
"X. c #6A9595",
"o. c #62919C",
"O. c #639999",
"+. c #609C9C",
"@. c #5F81B8",
"#. c #528EB8",
"$. c #59B0BB",
"%. c #5BB7BA",
"&. c #5DB9B9",
"*. c #5EB9B9",
"=. c #67B6BB",
"-. c #6CBBBB",
";. c #0180F6",
":. c #0089F8",
">. c #008FF9",
",. c #1B84F7",
"<. c #0199FB",
"1. c #009BFC",
"2. c #01A5FD",
"3. c #01A4FE",
"4. c #02B0FF",
"5. c #03B7FF",
"6. c #04B9FF",
"7. c #05BCFF",
"8. c #34BEFF",
"9. c #53B8FF",
"0. c #53BEFF",
"q. c #6DB9FF",
"w. c #70B7FF",
"e. c #05C0FF",
"r. c #08CBFF",
"t. c #0DCAFF",
"y. c #0AD1FF",
"u. c #0AD2FF",
"i. c #0BD6FF",
"p. c #0CDBFF",
"a. c #16D2FF",
"s. c #29D8FF",
"d. c #0EE3FF",
"f. c #10ECFF",
"g. c #15ECFF",
"h. c #11F1FF",
"j. c #12F1FF",
"k. c #11F2FF",
"l. c #12F4FF",
"z. c #14F8FF",
"x. c #16FDFF",
"c. c #16FEFF",
"v. c #17FFFF",
"b. c #18FFFF",
"n. c #1AFFFF",
"m. c #1BFFFF",
"M. c #1CFFFF",
"N. c #1DFFFF",
"B. c #20F0FF",
"V. c #20FFFF",
"C. c #29FFFF",
"Z. c #47D7FF",
"A. c #65D3FF",
"S. c #87889C",
"D. c #958595",
"F. c #978597",
"G. c #948599",
"H. c #90859C",
"J. c #8A91BC",
"K. c #958DFF",
"L. c #8DAEFF",
"P. c #8FB4FF",
"I. c #AEA5FF",
"U. c #B1A6FF",
"Y. c #A7BFFF",
"T. c #CD9FFF",
"R. c #FF85FF",
"E. c #FF86FF",
"W. c #FF8CFF",
"Q. c #E89AFF",
"!. c #EE9FFF",
"~. c #FF90FF",
"^. c #FF94FF",
"/. c #F99DFF",
"(. c #D0A1FF",
"). c #C5BBFF",
"_. c #FCA9FF",
"`. c #FFA9FF",
"'. c #E4B7FF",
"]. c #85CCFF",
"[. c None",
/* pixels */
"[.[.[.[.[.[.[.[.o i F.F.a a D.+ [.[.[.[.[.[.[.[.",
"[.[.[.[.[.[.[.[.w A R.`.W._.!.G.[.[.[.[.[.[.[.[.",
"[.[.[.[.[.[.[.[.q S ~.^./.'.(.H.[.[.[.[.[.[.[.[.",
"[.[.[.[.[.[.[.[.q F R.Q Q.).U.S.[.[.[.[.[.[.[.[.",
"[.[.[.[.[.[.[.[.q G ( ! T.Y.P.} [.[.[.[.[.[.[.[.",
"[.[.[.[.[.[.[.[.w R / W I.].w.{ [.[.[.[.[.[.[.[.",
"[.[.[.[.[.[.[.[.r E ^ ~ L.A.9.[ [.[.[.[.[.[.[.[.",
"[.[.[.[.[.[.[.[.y T I P q.Z.8.o.[.[.[.[.[.[.[.[.",
"o w q q r q u p g Y K.K 0.s.a.=.+.+.+.+.+.+.O.O ",
"0 B B B B B C D Z L J.= * $.B.j.N.b.b.N.b.N.N.X.",
"9 B B B B B V U x f   [.[.  %.b.N.N.N.N.N.N.b...",
"9 B B B B B b J z # [.[.[.[.% N.b.N.b.b.b.N.N...",
"9 B B B N m l H 3 @ [.[.[.[.% V.N.b.N.N.N.b.b...",
"9 B B B v c h 6 2 <   [.[.. *.N.b.N.N.b.b.N.N...",
"0 N B m k j 1 5 4 ,.#.% % *.C.N.b.N.N.b.N.N.N.X.",
"o w q e 8 7 , > @.;.<.t.g.b.b.-.+.+.+.+.+.+.O.O ",
"[.[.[.[.[.[.[.[.- :.3.u.h.b.N.+.[.[.[.[.[.[.[.[.",
"[.[.[.[.[.[.[.[.; >.5.p.z.b.b.+.[.[.[.[.[.[.[.[.",
"[.[.[.[.[.[.[.[.: 1.e.d.b.b.N.+.[.[.[.[.[.[.[.[.",
"[.[.[.[.[.[.[.[._ 3.r.f.b.N.b.O.[.[.[.[.[.[.[.[.",
"[.[.[.[.[.[.[.[._ 4.u.h.b.b.b.+.[.[.[.[.[.[.[.[.",
"[.[.[.[.[.[.[.[.' 6.i.h.b.N.N.+.[.[.[.[.[.[.[.[.",
"[.[.[.[.[.[.[.[.` 7.i.h.b.N.N.O.[.[.[.[.[.[.[.[.",
"[.[.[.[.[.[.[.[.X ] | ......X.O [.[.[.[.[.[.[.[."
};
