/* XPM */
static const char *xpmSdgbc48[] = {
/* columns rows colors chars-per-pixel */
"48 48 206 2 ",
"   c #000000",
".  c #1C1C1C",
"X  c #3C3D3F",
"o  c #403C40",
"O  c #737A7A",
"+  c #7A7A7C",
"@  c #7A777C",
"#  c #5536F0",
"$  c #683CF3",
"%  c #7230F2",
"&  c #3856F4",
"*  c #066AF2",
"=  c #0077F4",
"-  c #1E68F5",
";  c #2662F5",
":  c #4C59F7",
">  c #5C55F8",
",  c #4740F1",
"<  c #6B53F9",
"1  c #7B50FA",
"2  c #466CF6",
"3  c #B076B0",
"4  c #BB77BB",
"5  c #9B01E9",
"6  c #8802E9",
"7  c #A901EB",
"8  c #BA00ED",
"9  c #B100EA",
"0  c #B308F1",
"q  c #9B2CF6",
"w  c #823BF6",
"e  c #9639F7",
"r  c #8929F3",
"t  c #A825F6",
"y  c #B823F7",
"u  c #B836FB",
"i  c #AF33FA",
"p  c #C500EE",
"a  c #CC03F2",
"s  c #DA02F2",
"d  c #D700F0",
"f  c #D300EF",
"g  c #E402F3",
"h  c #EB00F3",
"j  c #F400F4",
"k  c #F70BF7",
"l  c #F912F9",
"z  c #F81DFC",
"x  c #C724F9",
"c  c #D427FB",
"v  c #C935FD",
"b  c #DB34FE",
"n  c #E228FD",
"m  c #F529FD",
"M  c #E933FE",
"N  c #AA72C8",
"B  c #B375CA",
"V  c #8A4DFB",
"C  c #9A4BFC",
"Z  c #A949FE",
"A  c #B746FD",
"S  c #8574FF",
"D  c #967AFF",
"F  c #9467FF",
"G  c #B268FF",
"H  c #A67BFF",
"J  c #BB7BFF",
"K  c #A465FF",
"L  c #C077C0",
"P  c #CD76CD",
"I  c #CF7BCF",
"U  c #C273CA",
"Y  c #CD4FFF",
"T  c #FA47FF",
"R  c #FF54FF",
"E  c #FF5BFF",
"W  c #F457FF",
"Q  c #E44EFF",
"!  c #D866FF",
"~  c #C87CFF",
"^  c #D879FF",
"/  c #C06AFF",
"(  c #ED6AFF",
")  c #FE64FF",
"_  c #FD6CFF",
"`  c #F76DFF",
"'  c #E779FE",
"]  c #FF76FF",
"[  c #FE7DFF",
"{  c #F27CFF",
"}  c #7E929E",
"|  c #7EBBBE",
" . c #7CB4BE",
".. c #7BA9B5",
"X. c #008DF9",
"o. c #0082F6",
"O. c #0094FA",
"+. c #009DFD",
"@. c #1794F9",
"#. c #00A4FE",
"$. c #01ADFF",
"%. c #03B4FF",
"&. c #05BDFF",
"*. c #2DBBFF",
"=. c #5E8ECA",
"-. c #5F92CB",
";. c #638ECC",
":. c #78AFCF",
">. c #7BB8CE",
",. c #79B5D0",
"<. c #6DA3CD",
"1. c #7991FF",
"2. c #44BAFF",
"3. c #53B9FF",
"4. c #41AEFB",
"5. c #68A3FC",
"6. c #72B4FF",
"7. c #06C3FF",
"8. c #08CAFF",
"9. c #0EC7FF",
"0. c #19C8FF",
"q. c #09D2FF",
"w. c #0CDBFF",
"e. c #13D3FF",
"r. c #28C8FF",
"t. c #38C8FF",
"y. c #3DD9FF",
"u. c #0EE5FF",
"i. c #10ECFF",
"p. c #1BE2FF",
"a. c #12F4FF",
"s. c #15FDFF",
"d. c #1BFFFF",
"f. c #19F4FF",
"g. c #27E6FF",
"h. c #26FDFF",
"j. c #31FFFF",
"k. c #33E4FF",
"l. c #7CC6CE",
"z. c #5DC6FF",
"x. c #4CD3FF",
"c. c #6CC4FF",
"v. c #72D6FF",
"b. c #6FCDFF",
"n. c #4DEEFE",
"m. c #60E0FF",
"M. c #77F4FA",
"N. c #938D9A",
"B. c #839C9C",
"V. c #85969B",
"C. c #908F9C",
"Z. c #B19FB1",
"A. c #81AFAF",
"S. c #81BDBD",
"D. c #B8A6BB",
"F. c #8A9ACC",
"G. c #938DCA",
"H. c #88BDCD",
"J. c #96BCCD",
"K. c #BFAFCD",
"L. c #A8B8CD",
"P. c #B7B1CD",
"I. c #9396FF",
"U. c #9091F8",
"Y. c #A58CFF",
"T. c #B584FF",
"R. c #B49DFF",
"E. c #93A7FF",
"W. c #9BB8FF",
"Q. c #89B2FF",
"!. c #A9A6FE",
"~. c #B4B6F8",
"^. c #C196C1",
"/. c #CE8BD1",
"(. c #D086D1",
"). c #CF90D0",
"_. c #C18CC1",
"`. c #C1ABC1",
"'. c #C2A6C5",
"]. c #C796F5",
"[. c #FF8CFF",
"{. c #FF84FF",
"}. c #FF9CFF",
"|. c #FA97FF",
" X c #E19AFF",
".X c #C6BBFF",
"XX c #D6B9FF",
"oX c #D5A8FF",
"OX c #FEA4FF",
"+X c #FBAEFF",
"@X c #E5B8FF",
"#X c #FFB3FF",
"$X c #F7BBFF",
"%X c #EBA5FF",
"&X c #80CDCD",
"*X c #83D0D0",
"=X c #82CFD2",
"-X c #87C6FF",
";X c #92CEFF",
":X c #81D3ED",
">X c #A6C9FF",
",X c #BAC6FF",
"<X c #8BE5E6",
"1X c #D6C9FF",
"2X c #F3C4FF",
"3X c None",
/* pixels */
"3X3X3X3X3X3X3X3X3X3X3X3X3X3X3X3X3X                            3X3X3X3X3X3X3X3X3X3X3X3X3X3X3X3X3X",
"3X3X3X3X3X3X3X3X3X3X3X3X3X3X3X3X  X 3 ^.^.'.`.`.`._.D.K.`.Z.o   3X3X3X3X3X3X3X3X3X3X3X3X3X3X3X3X",
"3X3X3X3X3X3X3X3X3X3X3X3X3X3X3X3X  4 j R [ [.}.#X}.R [.#XOX%XD.  3X3X3X3X3X3X3X3X3X3X3X3X3X3X3X3X",
"3X3X3X3X3X3X3X3X3X3X3X3X3X3X3X3X  I j R [ |.OX#XOXOX#X+X%X X'.  3X3X3X3X3X3X3X3X3X3X3X3X3X3X3X3X",
"3X3X3X3X3X3X3X3X3X3X3X3X3X3X3X3X  P j E {.|.OXOX{.2X$X@XoXoXK.  3X3X3X3X3X3X3X3X3X3X3X3X3X3X3X3X",
"3X3X3X3X3X3X3X3X3X3X3X3X3X3X3X3X  I j E [.}.}.) _ 2X@XoXoX].P.  3X3X3X3X3X3X3X3X3X3X3X3X3X3X3X3X",
"3X3X3X3X3X3X3X3X3X3X3X3X3X3X3X3X  P j E [.[.) R _ 1X.X.XR.R.P.  3X3X3X3X3X3X3X3X3X3X3X3X3X3X3X3X",
"3X3X3X3X3X3X3X3X3X3X3X3X3X3X3X3X  P k ] [._ E R ` 1X1X~.~.!.L.  3X3X3X3X3X3X3X3X3X3X3X3X3X3X3X3X",
"3X3X3X3X3X3X3X3X3X3X3X3X3X3X3X3X  P k ] ] _ ) E ( ,X,X~.W.W.L.  3X3X3X3X3X3X3X3X3X3X3X3X3X3X3X3X",
"3X3X3X3X3X3X3X3X3X3X3X3X3X3X3X3X  P k ] ] _ ` W ^ ,XW.;XE.6.L.  3X3X3X3X3X3X3X3X3X3X3X3X3X3X3X3X",
"3X3X3X3X3X3X3X3X3X3X3X3X3X3X3X3X  P k [ ] ` ( Q ].>X;XW.Q.c.J.  3X3X3X3X3X3X3X3X3X3X3X3X3X3X3X3X",
"3X3X3X3X3X3X3X3X3X3X3X3X3X3X3X3X  I k [ { ' ( Y J ;Xv.b.6.z.J.  3X3X3X3X3X3X3X3X3X3X3X3X3X3X3X3X",
"3X3X3X3X3X3X3X3X3X3X3X3X3X3X3X3X  I l {.' ^ ! Y Y.-Xv.b.5.3.H.  3X3X3X3X3X3X3X3X3X3X3X3X3X3X3X3X",
"3X3X3X3X3X3X3X3X3X3X3X3X3X3X3X3X  I z ^ ^ ~ G G I.v.m.z.3.2.H.  3X3X3X3X3X3X3X3X3X3X3X3X3X3X3X3X",
"3X3X3X3X3X3X3X3X3X3X3X3X3X3X3X3X  I z ^ ~ J G H E.z.x.x.*.t.&X  3X3X3X3X3X3X3X3X3X3X3X3X3X3X3X3X",
"3X3X3X3X3X3X3X3X3X3X3X3X3X3X3X3X  P z ].T.H K D 5.x.x.x.*.r.H.  3X3X3X3X3X3X3X3X3X3X3X3X3X3X3X3X",
"3X                                (.c T.Y.U.F S 5.x.k.r.r.e.l.                                3X",
"  o L P P I P P P I P I I ).).)./.{ c H I.U.S S 5.k.g.0.e.u.M.=X*X*X*X*X*X*X*X*X*X*X*X*X*XS.X   ",
"  3 j j j j j j j j j j j m M M n c v D E.~.C.+ O B.<Xg.a.i.u.a.d.d.d.d.d.d.d.d.d.d.d.d.d.h.A.  ",
"  L j j j j j j j j j j j m Q b c x u !.C..         . B.n.a.i.f.d.d.d.d.d.d.d.d.d.d.d.d.d.d.S.  ",
"  L j j j j j j j j j j j M Y b x y Z C.    3X3X3X3X    } h.s.s.d.d.d.d.d.d.d.d.d.d.d.d.d.d.S.  ",
"  L j j j j j j j j j j j b v A y t /..   3X3X3X3X3X3X  . <Xs.d.d.d.d.d.d.d.d.d.d.d.d.d.d.d.S.  ",
"  L j j j j j j j j j j j v A Z t q N.  3X3X3X3X3X3X3X3X  B.d.d.d.d.d.d.d.d.d.d.d.d.d.d.d.d.S.  ",
"  L j j j j j j j j j j h u Z C q e @   3X3X3X3X3X3X3X3X  O h.d.d.d.d.d.d.d.d.d.d.d.d.d.d.d.S.  ",
"  L j j j j j j j j j h s i C V r w @   3X3X3X3X3X3X3X3X  + h.d.d.d.d.d.d.d.d.d.d.d.d.d.d.d.S.  ",
"  L j j j j j j k h g g a e V 1 r $ N.  3X3X3X3X3X3X3X3X  B.h.d.d.d.d.d.d.d.d.h.d.d.d.d.d.d.S.  ",
"  L j j j j j j g s d f 8 e 1 < % # U..   3X3X3X3X3X3X  . <Xd.d.d.d.d.d.d.d.d.d.d.d.d.d.d.d.S.  ",
"  L j j j j j j s a p p 7 w < > # # 2 V.    3X3X3X3X    B.j.d.d.d.d.d.d.d.d.d.d.d.d.d.d.d.d.S.  ",
"  4 j j j j j g a 8 8 9 5 $ > : # ; - *.V..         . B.n.d.d.d.d.d.d.d.d.d.d.d.d.d.d.d.d.d.S.  ",
"  3 j j j j j d 8 0 7 5 6 $ : & ; - - o.@.:XV.O O B.<Xj.h.d.d.d.d.d.d.d.d.d.d.d.d.d.d.d.d.d.A.  ",
"  o 4 P P P P U B B B B N G.F.G.F.5.* X.X.#.9.9.p.f.s.d.d.d.M.*X&X&X&X&X&X&X&X&X&X&X&X&X&XS.X   ",
"3X                                =.* O.X.$.8.q.u.a.d.d.d.d.&X                                3X",
"3X3X3X3X3X3X3X3X3X3X3X3X3X3X3X3X  =.= +.O.$.7.w.i.s.s.d.d.d.&X  3X3X3X3X3X3X3X3X3X3X3X3X3X3X3X3X",
"3X3X3X3X3X3X3X3X3X3X3X3X3X3X3X3X  =.= +.+.%.8.w.i.s.d.d.d.d.&X  3X3X3X3X3X3X3X3X3X3X3X3X3X3X3X3X",
"3X3X3X3X3X3X3X3X3X3X3X3X3X3X3X3X  -.= +.$.&.q.u.a.s.d.d.d.d.&X  3X3X3X3X3X3X3X3X3X3X3X3X3X3X3X3X",
"3X3X3X3X3X3X3X3X3X3X3X3X3X3X3X3X  -.o.+.%.&.q.u.a.s.d.d.d.d.&X  3X3X3X3X3X3X3X3X3X3X3X3X3X3X3X3X",
"3X3X3X3X3X3X3X3X3X3X3X3X3X3X3X3X  <.X.#.%.7.w.i.f.s.d.d.d.d.&X  3X3X3X3X3X3X3X3X3X3X3X3X3X3X3X3X",
"3X3X3X3X3X3X3X3X3X3X3X3X3X3X3X3X  :.O.$.&.8.w.i.s.d.d.d.d.d.&X  3X3X3X3X3X3X3X3X3X3X3X3X3X3X3X3X",
"3X3X3X3X3X3X3X3X3X3X3X3X3X3X3X3X  :.O.$.&.q.u.a.s.s.d.d.d.d.&X  3X3X3X3X3X3X3X3X3X3X3X3X3X3X3X3X",
"3X3X3X3X3X3X3X3X3X3X3X3X3X3X3X3X  :.#.%.7.q.u.a.s.d.d.d.d.d.&X  3X3X3X3X3X3X3X3X3X3X3X3X3X3X3X3X",
"3X3X3X3X3X3X3X3X3X3X3X3X3X3X3X3X  ,.#.%.7.w.i.a.s.d.d.d.d.d.&X  3X3X3X3X3X3X3X3X3X3X3X3X3X3X3X3X",
"3X3X3X3X3X3X3X3X3X3X3X3X3X3X3X3X  ,.$.&.8.w.i.s.s.d.d.d.d.d.&X  3X3X3X3X3X3X3X3X3X3X3X3X3X3X3X3X",
"3X3X3X3X3X3X3X3X3X3X3X3X3X3X3X3X  ,.$.&.q.w.i.f.s.d.d.d.d.d.&X  3X3X3X3X3X3X3X3X3X3X3X3X3X3X3X3X",
"3X3X3X3X3X3X3X3X3X3X3X3X3X3X3X3X  ,.%.7.q.w.i.a.s.d.d.d.d.d.&X  3X3X3X3X3X3X3X3X3X3X3X3X3X3X3X3X",
"3X3X3X3X3X3X3X3X3X3X3X3X3X3X3X3X  ,.%.7.q.w.i.s.s.d.d.d.d.d.&X  3X3X3X3X3X3X3X3X3X3X3X3X3X3X3X3X",
"3X3X3X3X3X3X3X3X3X3X3X3X3X3X3X3X  ..&.7.q.w.i.s.s.d.d.d.d.d.S.  3X3X3X3X3X3X3X3X3X3X3X3X3X3X3X3X",
"3X3X3X3X3X3X3X3X3X3X3X3X3X3X3X3X  X .. . . .| | S.S.S.S.S.A.X   3X3X3X3X3X3X3X3X3X3X3X3X3X3X3X3X",
"3X3X3X3X3X3X3X3X3X3X3X3X3X3X3X3X3X                            3X3X3X3X3X3X3X3X3X3X3X3X3X3X3X3X3X"
};
